<svg width="100" height="125" viewBox="0 0 100 125" fill="none" xmlns="http://www.w3.org/2000/svg">
<path d="M84.4185 52.8557C84.4185 52.3037 83.9725 51.8557 83.4185 51.8557H29.9655L82.7755 43.5487C83.3205 43.4627 83.6935 42.9507 83.6075 42.4057L82.4985 35.3437C82.2325 33.6617 81.3105 32.1877 79.9005 31.1947C78.4985 30.2067 76.7815 29.8147 75.0685 30.0817L20.5295 38.6617C19.2745 38.8587 18.1615 39.3997 17.2665 40.1627C17.2575 40.1687 17.2465 40.1697 17.2385 40.1767C17.2275 40.1847 17.2235 40.1977 17.2135 40.2067C15.6075 41.6037 14.7275 43.7357 15.0755 45.9487L16.1685 52.8957V87.3377C16.1685 90.8407 19.0935 93.6917 22.6895 93.6917H77.8975C81.4935 93.6917 84.4185 90.8407 84.4185 87.3377V52.9877C84.4185 52.9647 84.4065 52.9457 84.4055 52.9227C84.4065 52.8987 84.4185 52.8797 84.4185 52.8557ZM76.3085 53.8557L70.5175 63.4487H64.1485L69.9415 53.8557H76.3085V53.8557ZM67.6055 53.8557L61.8125 63.4487H53.1075L58.9005 53.8557H67.6055V53.8557ZM56.5625 53.8557L50.7715 63.4487H42.0655L47.8575 53.8557H56.5625V53.8557ZM45.5215 53.8557L39.7295 63.4487H31.0235L36.8155 53.8557H45.5215V53.8557ZM28.6875 63.4497H19.9815L25.7735 53.8567H34.4795L28.6875 63.4497ZM18.1675 62.5817V53.8547H23.4365L18.1675 62.5817ZM75.3775 32.0567C76.5755 31.8707 77.7735 32.1417 78.7465 32.8287C79.7105 33.5087 80.3415 34.5117 80.5185 35.6537L81.4735 41.7277L78.7555 42.1557L71.3155 32.6957L75.3775 32.0567ZM69.0525 33.0537L76.4925 42.5127L68.3115 43.7997L60.8715 34.3407L69.0525 33.0537ZM58.6065 34.6967L66.0455 44.1567L57.8645 45.4437L50.4235 35.9847L58.6065 34.6967ZM48.1605 36.3397L55.6005 45.7987L47.4195 47.0857L39.9795 37.6267L48.1605 36.3397ZM37.7145 37.9837L45.1545 47.4427L36.9735 48.7297L29.5335 39.2707L37.7145 37.9837ZM20.8395 40.6377L27.2695 39.6257L34.7095 49.0847L26.5285 50.3717L19.2995 41.1807C19.7655 40.9207 20.2795 40.7257 20.8395 40.6377ZM17.8065 42.5167L24.2645 50.7277L18.0065 51.7117L17.0505 45.6377C16.8725 44.5047 17.1785 43.4047 17.8065 42.5167ZM82.4185 87.3377C82.4185 89.7377 80.3905 91.6917 77.8975 91.6917H22.6885C20.1955 91.6917 18.1675 89.7387 18.1675 87.3377V65.4497H82.4175L82.4185 87.3377ZM82.4185 63.4497H81.6905L82.4185 62.2447V63.4497ZM82.4185 58.3717L79.3555 63.4487H72.8535L78.6465 53.8547H82.4185V58.3717V58.3717Z" fill="black"/>
</svg>
